<svg xmlns="http://www.w3.org/2000/svg" width="468" height="180" viewBox="0 0 123.82514 47.624998" version="1.1">
  <g id="layer1">
    <path style="fill:#92e3aa;stroke:none;stroke-width:0.0936258" d="m 23.451267,0.00863816 c 0.02949,1.38151364 -0.0685,2.61590114 -0.462424,3.96144874 -0.164894,0.5634758 -0.295534,1.2332827 -0.784505,1.6290668 -0.440066,0.3561903 -1.081181,0.1855897 -1.607545,0.2525685 -1.322955,0.1683291 -2.604613,0.3720134 -3.901116,0.686251 -3.39378,0.8225543 -6.9449079,2.6414806 -9.3084606,5.1707568 -3.9103635,4.184485 -6.69489355,9.8091 -6.2874837,15.569412 0.6471052,9.149379 6.9271719,17.039761 16.2619893,19.288849 2.298327,0.553773 5.082582,0.965486 7.421634,0.42627 v -0.09213 C 23.918925,46.539994 23.228809,45.835314 22.309478,45.589244 21.549997,45.386017 20.794132,45.489751 20.025898,45.400845 18.707892,45.248191 17.37961,44.915153 16.124782,44.498557 12.929198,43.437811 10.147027,41.54553 7.8553221,39.162484 0.13212177,31.131523 1.6298414,18.28759 10.320684,11.56584 c 2.26455,-1.751423 4.895138,-3.0112365 7.707081,-3.6918867 1.113816,-0.2696113 2.354276,-0.1886279 3.425371,-0.4951785 -1.019524,2.2909106 -3.02051,4.1403532 -4.469632,6.1724892 -3.117563,4.371868 -4.973256,9.803294 -2.357511,14.832396 0.804296,1.546444 2.258079,3.722198 4.067817,4.237829 0,-3.23908 1.466248,-6.241492 2.623737,-9.212669 1.043786,-2.679324 1.849224,-5.353116 2.228869,-8.199278 1.444555,1.198937 0.542446,3.520073 0.06243,4.974845 -1.387465,4.204567 -3.868385,8.084023 -3.868385,12.621355 2.860564,-0.118932 5.081822,-2.183768 6.865488,-4.1457 5.161936,-5.677676 6.354632,-12.859232 3.410621,-19.8072418 2.444858,1.1216409 4.788,2.4877878 6.651878,4.4220818 5.000754,5.189497 6.931235,12.794468 4.380381,19.53086 -0.948447,2.504652 -2.421451,4.664835 -4.260494,6.633124 -1.573576,1.684077 -3.564001,3.235857 -5.725124,4.158418 -2.402707,1.025738 -5.126637,0.19853 -7.041038,-1.394706 -2.724503,-2.267333 -4.186564,-5.862672 -4.186564,-9.304707 h -1.046641 c 0,2.856114 0.409045,5.887172 1.946085,8.383531 2.224778,3.613576 6.989372,5.658602 11.089349,3.840852 11.751872,-5.210043 15.5625,-20.757436 8.073216,-30.741852 C 38.077884,11.954432 35.739119,9.9368521 33.061336,8.4312652 31.838194,7.7435603 29.898674,7.4334197 28.883622,6.5299431 28.334326,6.0409844 28.070572,5.2989929 27.661812,4.7070986 26.50318,3.0297381 25.215336,1.1384773 23.451271,0.00863511 Z" id="path851" />
    <text x="43.226555" y="32.71273" style="font-style:normal;font-weight:normal;font-size:20.7834px;line-height:1.25;font-family:sans-serif;fill:#000000;fill-opacity:1;stroke:none;stroke-width:0.519587"><tspan x="43.226555" y="32.71273" style="fill:#444444;fill-opacity:1;stroke-width:0.519587">E-Ciclo</tspan></text>
  </g>
</svg>
